<svg width="20" height="18" viewBox="0 0 20 18" fill="none" xmlns="http://www.w3.org/2000/svg">
<g clip-path="url(#clip0)">
<path d="M13.6539 0C15.1268 0 16.364 0.496701 17.3656 1.4901C18.3672 2.4835 18.868 3.69604 18.868 5.12771C18.868 5.82893 18.7207 6.53746 18.4261 7.25329C18.1315 7.96913 17.8075 8.60461 17.454 9.15975C17.1005 9.71488 16.5039 10.4307 15.6644 11.3072C14.8248 12.1838 14.1178 12.8923 13.5434 13.4328C12.969 13.9734 12.0484 14.7988 10.7817 15.909L9.41188 17.1362L8.04208 15.9529C6.80483 14.8134 5.89163 13.9734 5.30247 13.4328C4.71331 12.8923 3.99894 12.1838 3.15939 11.3072C2.31983 10.4307 1.7233 9.71488 1.3698 9.15975C1.01631 8.60461 0.699631 7.96913 0.419779 7.25329C0.139926 6.53746 0 5.82893 0 5.12771C0 3.69604 0.500789 2.4835 1.50237 1.4901C2.50394 0.496701 3.72646 0 5.16991 0C6.87848 0 8.29247 0.657398 9.41188 1.97219C10.5313 0.657398 11.9453 0 13.6539 0ZM9.50026 14.5504C10.9437 13.2648 11.9968 12.308 12.6596 11.6798C13.3225 11.0516 14.0515 10.2992 14.8469 9.42271C15.6423 8.54618 16.1946 7.77921 16.5039 7.12181C16.8132 6.46441 16.9679 5.79971 16.9679 5.12771C16.9679 4.19274 16.6512 3.41847 16.0179 2.8049C15.3845 2.19133 14.5965 1.88454 13.6539 1.88454C12.9469 1.88454 12.2767 2.08907 11.6433 2.49811C11.01 2.90716 10.5607 3.43308 10.2956 4.07587H8.52814C8.29247 3.43308 7.85796 2.90716 7.22461 2.49811C6.59126 2.08907 5.90636 1.88454 5.16991 1.88454C4.22725 1.88454 3.4466 2.19133 2.82798 2.8049C2.20936 3.41847 1.90005 4.19274 1.90005 5.12771C1.90005 5.79971 2.04734 6.46441 2.34192 7.12181C2.63651 7.77921 3.18885 8.54618 3.99894 9.42271C4.80904 10.2992 5.5455 11.0516 6.20831 11.6798C6.87112 12.308 7.90952 13.2648 9.32351 14.5504L9.41188 14.6381L9.50026 14.5504Z" fill="#9B9B9B"/>
</g>
<defs>
<clipPath id="clip0">
<rect width="19.0889" height="17.18" fill="white"/>
</clipPath>
</defs>
</svg>
