<svg width="18" height="18" viewBox="0 0 18 18" fill="none" xmlns="http://www.w3.org/2000/svg">
<path fill-rule="evenodd" clip-rule="evenodd" d="M0 8.59C0 3.93336 3.93336 0 8.59 0C13.2466 0 17.18 3.93336 17.18 8.59C17.18 11.3302 15.8125 13.811 13.744 15.3967V15.462H13.6564C12.2236 16.5315 10.4686 17.18 8.59 17.18C6.71137 17.18 4.95643 16.5315 3.52362 15.462H3.436V15.3967C1.36753 13.811 0 11.3294 0 8.59ZM6.11906 13.0877C5.66213 13.4553 5.34415 13.9677 5.21757 14.5403C6.22088 15.1218 7.37366 15.462 8.59 15.462C9.80634 15.462 10.9591 15.1218 11.9624 14.5403C11.8357 13.9678 11.5177 13.4555 11.0608 13.0879C10.6039 12.7203 10.0354 12.5194 9.449 12.5182H7.731C7.14456 12.5192 6.57598 12.7201 6.11906 13.0877ZM11.8265 11.5206C12.5309 11.9894 13.0813 12.6555 13.409 13.4356C14.6691 12.1823 15.462 10.4592 15.462 8.59C15.462 4.86452 12.3155 1.718 8.59 1.718C4.86452 1.718 1.718 4.86452 1.718 8.59C1.718 10.4592 2.51086 12.1823 3.77101 13.4356C4.09867 12.6555 4.64914 11.9894 5.35352 11.5206C6.0579 11.0519 6.88489 10.8013 7.731 10.8002H9.449C10.2951 10.8013 11.1221 11.0519 11.8265 11.5206ZM5.154 6.872C5.154 4.91348 6.63148 3.436 8.59 3.436C10.5485 3.436 12.026 4.91348 12.026 6.872C12.026 8.83052 10.5485 10.308 8.59 10.308C6.63148 10.308 5.154 8.83052 5.154 6.872ZM6.872 6.872C6.872 7.8839 7.5781 8.59 8.59 8.59C9.6019 8.59 10.308 7.8839 10.308 6.872C10.308 5.8601 9.6019 5.154 8.59 5.154C7.5781 5.154 6.872 5.8601 6.872 6.872Z" fill="#9B9B9B"/>
</svg>
